<svg width="32" height="32" viewBox="0 0 32 32" fill="none" xmlns="http://www.w3.org/2000/svg">
<rect width="32" height="32" rx="16" fill="#F5FBFF"/>
<path fill-rule="evenodd" clip-rule="evenodd" d="M8 16C8 11.5817 11.5817 8 16 8C20.4183 8 24 11.5817 24 16C24 20.4183 20.4183 24 16 24C11.5817 24 8 20.4183 8 16ZM12.1 14.65V20H13.8V14.65H12.1ZM12 12.95C12 13.5 12.4 13.9 12.95 13.9C13.5 13.9 13.9 13.5 13.9 12.95C13.9 12.4 13.5 12 12.95 12C12.45 12 12 12.4 12 12.95ZM18.3 20H19.9V16.7C19.9 15.05 18.9 14.5 17.95 14.5C17.1 14.5 16.5 15.05 16.35 15.4V14.65H14.75V20H16.45V17.15C16.45 16.4 16.95 16 17.45 16C17.95 16 18.3 16.25 18.3 17.1V20Z" fill="black"/>
</svg>
