<svg width="40" height="40" viewBox="0 0 40 40" fill="none" xmlns="http://www.w3.org/2000/svg">
<rect width="40" height="40" rx="20" fill="#F5FBFF"/>
<path d="M25.7467 17.6334C25.0467 14.5534 22.3601 13.1667 20.0001 13.1667C20.0001 13.1667 20.0001 13.1667 19.9934 13.1667C17.6401 13.1667 14.9467 14.5467 14.2467 17.6267C13.4667 21.0667 15.5734 23.9801 17.4801 25.8134C18.1867 26.4934 19.0934 26.8334 20.0001 26.8334C20.9067 26.8334 21.8134 26.4934 22.5134 25.8134C24.4201 23.9801 26.5267 21.0734 25.7467 17.6334ZM20.0001 20.9734C18.8401 20.9734 17.9001 20.0334 17.9001 18.8734C17.9001 17.7134 18.8401 16.7734 20.0001 16.7734C21.1601 16.7734 22.1001 17.7134 22.1001 18.8734C22.1001 20.0334 21.1601 20.9734 20.0001 20.9734Z" fill="#2C7EF8"/>
</svg>
