<svg width="32" height="32" viewBox="0 0 32 32" fill="none" xmlns="http://www.w3.org/2000/svg">
<rect width="32" height="32" rx="16" fill="#F5FBFF"/>
<path d="M22.6468 20.22C22.6468 20.46 22.5935 20.7067 22.4802 20.9467C22.3668 21.1867 22.2202 21.4134 22.0268 21.6267C21.7002 21.9867 21.3402 22.2467 20.9335 22.4134C20.5335 22.58 20.1002 22.6667 19.6335 22.6667C18.9535 22.6667 18.2268 22.5067 17.4602 22.18C16.6935 21.8534 15.9268 21.4134 15.1668 20.86C14.4002 20.3 13.6735 19.68 12.9802 18.9934C12.2935 18.3 11.6735 17.5734 11.1202 16.8134C10.5735 16.0534 10.1335 15.2934 9.8135 14.54C9.4935 13.78 9.3335 13.0534 9.3335 12.36C9.3335 11.9067 9.4135 11.4734 9.5735 11.0734C9.7335 10.6667 9.98683 10.2934 10.3402 9.96004C10.7668 9.54004 11.2335 9.33337 11.7268 9.33337C11.9135 9.33337 12.1002 9.37337 12.2668 9.45337C12.4402 9.53337 12.5935 9.65337 12.7135 9.82671L14.2602 12.0067C14.3802 12.1734 14.4668 12.3267 14.5268 12.4734C14.5868 12.6134 14.6202 12.7534 14.6202 12.88C14.6202 13.04 14.5735 13.2 14.4802 13.3534C14.3935 13.5067 14.2668 13.6667 14.1068 13.8267L13.6002 14.3534C13.5268 14.4267 13.4935 14.5134 13.4935 14.62C13.4935 14.6734 13.5002 14.72 13.5135 14.7734C13.5335 14.8267 13.5535 14.8667 13.5668 14.9067C13.6868 15.1267 13.8935 15.4134 14.1868 15.76C14.4868 16.1067 14.8068 16.46 15.1535 16.8134C15.5135 17.1667 15.8602 17.4934 16.2135 17.7934C16.5602 18.0867 16.8468 18.2867 17.0735 18.4067C17.1068 18.42 17.1468 18.44 17.1935 18.46C17.2468 18.48 17.3002 18.4867 17.3602 18.4867C17.4735 18.4867 17.5602 18.4467 17.6335 18.3734L18.1402 17.8734C18.3068 17.7067 18.4668 17.58 18.6202 17.5C18.7735 17.4067 18.9268 17.36 19.0935 17.36C19.2202 17.36 19.3535 17.3867 19.5002 17.4467C19.6468 17.5067 19.8002 17.5934 19.9668 17.7067L22.1735 19.2734C22.3468 19.3934 22.4668 19.5334 22.5402 19.7C22.6068 19.8667 22.6468 20.0334 22.6468 20.22Z" stroke="#292D32" stroke-miterlimit="10"/>
</svg>
