<svg width="41" height="40" viewBox="0 0 41 40" fill="none" xmlns="http://www.w3.org/2000/svg">
<rect x="0.5" width="40" height="40" rx="20" fill="#F5FBFF"/>
<path d="M19.8668 21.9666L18.6335 23.1999C18.3735 23.4599 17.9602 23.4599 17.6935 23.2066C17.6202 23.1333 17.5468 23.0666 17.4735 22.9933C16.7868 22.2999 16.1668 21.5733 15.6135 20.8133C15.0668 20.0533 14.6268 19.2933 14.3068 18.5399C13.9935 17.7799 13.8335 17.0533 13.8335 16.3599C13.8335 15.9066 13.9135 15.4733 14.0735 15.0733C14.2335 14.6666 14.4868 14.2933 14.8402 13.9599C15.2668 13.5399 15.7335 13.3333 16.2268 13.3333C16.4135 13.3333 16.6002 13.3733 16.7668 13.4533C16.9402 13.5333 17.0935 13.6533 17.2135 13.8266L18.7602 16.0066C18.8802 16.1733 18.9668 16.3266 19.0268 16.4733C19.0868 16.6133 19.1202 16.7533 19.1202 16.8799C19.1202 17.0399 19.0735 17.1999 18.9802 17.3533C18.8935 17.5066 18.7668 17.6666 18.6068 17.8266L18.1002 18.3533C18.0268 18.4266 17.9935 18.5133 17.9935 18.6199C17.9935 18.6733 18.0002 18.7199 18.0135 18.7733C18.0335 18.8266 18.0535 18.8666 18.0668 18.9066C18.1868 19.1266 18.3935 19.4133 18.6868 19.7599C18.9868 20.1066 19.3068 20.4599 19.6535 20.8133C19.7202 20.8799 19.7935 20.9466 19.8602 21.0133C20.1268 21.2733 20.1335 21.6999 19.8668 21.9666Z" fill="#2C7EF8"/>
<path d="M27.1466 24.2201C27.1466 24.4068 27.1132 24.6001 27.0466 24.7868C27.0266 24.8401 27.0066 24.8934 26.9799 24.9468C26.8666 25.1868 26.7199 25.4134 26.5266 25.6268C26.1999 25.9868 25.8399 26.2468 25.4332 26.4134C25.4266 26.4134 25.4199 26.4201 25.4132 26.4201C25.0199 26.5801 24.5932 26.6668 24.1332 26.6668C23.4532 26.6668 22.7266 26.5068 21.9599 26.1801C21.1932 25.8534 20.4266 25.4134 19.6666 24.8601C19.4066 24.6668 19.1466 24.4734 18.8999 24.2668L21.0799 22.0868C21.2666 22.2268 21.4332 22.3334 21.5732 22.4068C21.6066 22.4201 21.6466 22.4401 21.6932 22.4601C21.7466 22.4801 21.7999 22.4868 21.8599 22.4868C21.9732 22.4868 22.0599 22.4468 22.1332 22.3734L22.6399 21.8734C22.8066 21.7068 22.9666 21.5801 23.1199 21.5001C23.2732 21.4068 23.4266 21.3601 23.5932 21.3601C23.7199 21.3601 23.8532 21.3868 23.9999 21.4468C24.1466 21.5068 24.2999 21.5934 24.4666 21.7068L26.6732 23.2734C26.8466 23.3934 26.9666 23.5334 27.0399 23.7001C27.1066 23.8668 27.1466 24.0334 27.1466 24.2201Z" fill="#2C7EF8"/>
</svg>
