<svg width="32" height="32" viewBox="0 0 32 32" fill="none" xmlns="http://www.w3.org/2000/svg">
<rect width="32" height="32" rx="16" fill="#F5FBFF"/>
<path fill-rule="evenodd" clip-rule="evenodd" d="M8 16C8 11.5817 11.5817 8 16 8C20.4183 8 24 11.5817 24 16C24 20.4183 20.4183 24 16 24C11.5817 24 8 20.4183 8 16ZM19.05 13.75C19.4 13.7 19.7 13.65 20 13.5C19.8 13.85 19.5 14.15 19.15 14.35C19.25 16.7 17.55 19.25 14.5 19.25C13.6 19.25 12.75 18.95 12 18.5C12.85 18.6 13.75 18.35 14.35 17.9C13.6 17.9 13 17.4 12.8 16.75C13.05 16.8 13.3 16.75 13.55 16.7C12.8 16.5 12.25 15.8 12.25 15.05C12.5 15.15 12.75 15.25 13 15.25C12.3 14.75 12.05 13.8 12.5 13.05C13.35 14.05 14.55 14.7 15.9 14.75C15.65 13.75 16.45 12.75 17.5 12.75C17.95 12.75 18.4 12.95 18.7 13.25C19.1 13.15 19.45 13.05 19.75 12.85C19.65 13.25 19.4 13.55 19.05 13.75Z" fill="black"/>
</svg>
